<svg width="168" height="40" viewBox="0 0 168 40" fill="none" xmlns="http://www.w3.org/2000/svg">
<circle cx="20" cy="20" r="20" fill="#5A2DA3"/>
<path d="M26.1768 15.9312H22.4746V26H19.9844V15.9312H16.332V13.9141H26.1768V15.9312Z" fill="white"/>
<path d="M62.7754 16.3389H58.8555V27H56.2188V16.3389H52.3516V14.2031H62.7754V16.3389ZM69.0244 22.3154H66.9238V27H64.2871V14.2031H69.042C70.5537 14.2031 71.7197 14.54 72.54 15.2139C73.3604 15.8877 73.7705 16.8398 73.7705 18.0703C73.7705 18.9434 73.5801 19.6729 73.1992 20.2588C72.8242 20.8389 72.2529 21.3018 71.4854 21.6475L74.2539 26.877V27H71.4238L69.0244 22.3154ZM66.9238 20.1797H69.0508C69.7129 20.1797 70.2256 20.0127 70.5889 19.6787C70.9521 19.3389 71.1338 18.873 71.1338 18.2812C71.1338 17.6777 70.9609 17.2031 70.6152 16.8574C70.2754 16.5117 69.751 16.3389 69.042 16.3389H66.9238V20.1797ZM78.5869 27H75.9502V14.2031H78.5869V27ZM90.7246 14.2031V22.6318C90.7246 24.0322 90.2852 25.1396 89.4062 25.9541C88.5332 26.7686 87.3379 27.1758 85.8203 27.1758C84.3262 27.1758 83.1396 26.7803 82.2607 25.9893C81.3818 25.1982 80.9336 24.1113 80.916 22.7285V14.2031H83.5527V22.6494C83.5527 23.4873 83.752 24.0996 84.1504 24.4863C84.5547 24.8672 85.1113 25.0576 85.8203 25.0576C87.3027 25.0576 88.0557 24.2783 88.0791 22.7197V14.2031H90.7246ZM96.332 14.2031L99.6191 23.4844L102.889 14.2031H106.352V27H103.706V23.502L103.97 17.4639L100.516 27H98.7051L95.2598 17.4727L95.5234 23.502V27H92.8867V14.2031H96.332ZM111.291 22.4912V27H108.654V14.2031H113.646C114.607 14.2031 115.451 14.3789 116.178 14.7305C116.91 15.082 117.473 15.583 117.865 16.2334C118.258 16.8779 118.454 17.6133 118.454 18.4395C118.454 19.6934 118.023 20.6836 117.162 21.4102C116.307 22.1309 115.12 22.4912 113.603 22.4912H111.291ZM111.291 20.3555H113.646C114.344 20.3555 114.874 20.1914 115.237 19.8633C115.606 19.5352 115.791 19.0664 115.791 18.457C115.791 17.8301 115.606 17.3232 115.237 16.9365C114.868 16.5498 114.358 16.3506 113.708 16.3389H111.291V20.3555ZM130.688 27H128.052V21.5156H122.91V27H120.273V14.2031H122.91V19.3887H128.052V14.2031H130.688V27ZM140.383 24.3633H135.76L134.881 27H132.077L136.841 14.2031H139.284L144.074 27H141.271L140.383 24.3633ZM136.472 22.2275H139.671L138.062 17.4375L136.472 22.2275ZM155.676 27H153.039L147.906 18.5801V27H145.27V14.2031H147.906L153.048 22.6406V14.2031H155.676V27ZM167.348 16.3389H163.428V27H160.791V16.3389H156.924V14.2031H167.348V16.3389Z" fill="white"/>
</svg>
