<svg width="267" height="266" viewBox="0 0 267 266" fill="none" xmlns="http://www.w3.org/2000/svg">
<rect x="0.418884" y="132.999" width="188.089" height="188.092" transform="rotate(-45 0.418884 132.999)" fill="#E5E5E5" fill-opacity="0.24"/>
<rect x="34.667" y="133.58" width="142.217" height="142.217" transform="rotate(-45 34.667 133.58)" fill="#E5E5E5" fill-opacity="0.31"/>
<rect x="80.9548" y="133.324" width="73.932" height="73.9332" transform="rotate(-45 80.9548 133.324)" fill="#E5E5E5" fill-opacity="0.5"/>
<path d="M124.389 127.16L127.128 134.894L129.853 127.16H132.739V137.824H130.534V134.909L130.754 129.877L127.875 137.824H126.367L123.496 129.884L123.715 134.909V137.824H121.518V127.16H124.389ZM139.111 137.824C139.013 137.633 138.942 137.396 138.898 137.113C138.386 137.684 137.719 137.97 136.899 137.97C136.123 137.97 135.478 137.745 134.965 137.296C134.457 136.847 134.204 136.281 134.204 135.597C134.204 134.757 134.514 134.113 135.134 133.663C135.759 133.214 136.66 132.987 137.836 132.982H138.811V132.528C138.811 132.162 138.715 131.869 138.525 131.649C138.339 131.43 138.044 131.32 137.639 131.32C137.282 131.32 137.001 131.405 136.796 131.576C136.596 131.747 136.496 131.981 136.496 132.279H134.379C134.379 131.82 134.521 131.395 134.804 131.005C135.087 130.614 135.488 130.309 136.005 130.089C136.523 129.865 137.104 129.752 137.749 129.752C138.725 129.752 139.499 129.999 140.07 130.492C140.646 130.98 140.935 131.669 140.935 132.557V135.993C140.939 136.745 141.044 137.313 141.249 137.699V137.824H139.111ZM137.36 136.351C137.673 136.351 137.961 136.283 138.225 136.146C138.488 136.005 138.684 135.817 138.811 135.582V134.22H138.02C136.96 134.22 136.396 134.586 136.328 135.319L136.32 135.443C136.32 135.707 136.413 135.924 136.599 136.095C136.784 136.266 137.038 136.351 137.36 136.351ZM149.694 133.934C149.694 135.155 149.416 136.134 148.859 136.871C148.308 137.604 147.561 137.97 146.618 137.97C145.817 137.97 145.17 137.692 144.677 137.135V140.87H142.561V129.899H144.523L144.597 130.675C145.109 130.06 145.778 129.752 146.603 129.752C147.58 129.752 148.339 130.114 148.881 130.836C149.423 131.559 149.694 132.555 149.694 133.825V133.934ZM147.578 133.781C147.578 133.043 147.446 132.474 147.182 132.074C146.923 131.674 146.545 131.474 146.047 131.474C145.383 131.474 144.926 131.727 144.677 132.235V135.48C144.936 136.002 145.397 136.264 146.061 136.264C147.072 136.264 147.578 135.436 147.578 133.781Z" fill="#0D0D0E" fill-opacity="0.96"/>
</svg>
